<mxfile host="app.diagrams.net" modified="2020-06-08T15:55:06.022Z" agent="5.0 (X11)" etag="sF1J93uv903LAlcPtRGo" version="13.1.14" type="github">
  <diagram id="N7HhOyAl5p8J07aAwO8r" name="Page-1">
    <mxGraphModel dx="2514" dy="894" grid="1" gridSize="10" guides="1" tooltips="1" connect="1" arrows="1" fold="1" page="1" pageScale="1" pageWidth="850" pageHeight="1100" math="0" shadow="0">
      <root>
        <mxCell id="0" />
        <mxCell id="1" parent="0" />
        <mxCell id="v7YINCpVnn5Mbe7uuaay-1" value="&lt;div style=&quot;font-size: 18px;&quot;&gt;172.16.1.35&lt;/div&gt;" style="rounded=1;whiteSpace=wrap;html=1;labelPosition=center;verticalLabelPosition=top;align=center;verticalAlign=bottom;fillColor=none;fontSize=18;fontStyle=1;strokeColor=#00FF00;strokeWidth=2;" vertex="1" parent="1">
          <mxGeometry x="160" y="190" width="480" height="270" as="geometry" />
        </mxCell>
        <mxCell id="v7YINCpVnn5Mbe7uuaay-2" value="mongod&lt;br&gt;port: 27217&lt;br&gt;replica set 1" style="shape=cylinder;whiteSpace=wrap;html=1;boundedLbl=1;backgroundOutline=1;fillColor=#dae8fc;strokeColor=#6c8ebf;" vertex="1" parent="1">
          <mxGeometry x="540" y="210" width="90" height="100" as="geometry" />
        </mxCell>
        <mxCell id="v7YINCpVnn5Mbe7uuaay-3" value="mongod&lt;br&gt;port: 27117&lt;br&gt;replica set 0" style="shape=cylinder;whiteSpace=wrap;html=1;boundedLbl=1;backgroundOutline=1;fillColor=#d5e8d4;strokeColor=#82b366;" vertex="1" parent="1">
          <mxGeometry x="425" y="210" width="90" height="100" as="geometry" />
        </mxCell>
        <mxCell id="v7YINCpVnn5Mbe7uuaay-4" value="mongod&lt;br&gt;configsvr&lt;br&gt;port: 27917&lt;br&gt;config set" style="shape=cylinder;whiteSpace=wrap;html=1;boundedLbl=1;backgroundOutline=1;fillColor=#f8cecc;strokeColor=#b85450;" vertex="1" parent="1">
          <mxGeometry x="310" y="210" width="90" height="100" as="geometry" />
        </mxCell>
        <mxCell id="v7YINCpVnn5Mbe7uuaay-6" style="rounded=0;orthogonalLoop=1;jettySize=auto;html=1;endArrow=none;endFill=0;dashed=1;" edge="1" parent="1" source="v7YINCpVnn5Mbe7uuaay-5" target="v7YINCpVnn5Mbe7uuaay-4">
          <mxGeometry relative="1" as="geometry" />
        </mxCell>
        <mxCell id="v7YINCpVnn5Mbe7uuaay-7" style="edgeStyle=none;rounded=0;orthogonalLoop=1;jettySize=auto;html=1;dashed=1;endArrow=none;endFill=0;" edge="1" parent="1" source="v7YINCpVnn5Mbe7uuaay-5" target="v7YINCpVnn5Mbe7uuaay-3">
          <mxGeometry relative="1" as="geometry" />
        </mxCell>
        <mxCell id="v7YINCpVnn5Mbe7uuaay-8" style="edgeStyle=none;rounded=0;orthogonalLoop=1;jettySize=auto;html=1;dashed=1;endArrow=none;endFill=0;" edge="1" parent="1" source="v7YINCpVnn5Mbe7uuaay-5" target="v7YINCpVnn5Mbe7uuaay-2">
          <mxGeometry relative="1" as="geometry" />
        </mxCell>
        <mxCell id="v7YINCpVnn5Mbe7uuaay-5" value="mongos&lt;br&gt;port: 27017" style="ellipse;whiteSpace=wrap;html=1;fillColor=#fff2cc;strokeColor=#d6b656;" vertex="1" parent="1">
          <mxGeometry x="450" y="350" width="120" height="80" as="geometry" />
        </mxCell>
        <mxCell id="v7YINCpVnn5Mbe7uuaay-11" style="edgeStyle=none;rounded=0;orthogonalLoop=1;jettySize=auto;html=1;dashed=1;endArrow=classic;endFill=1;startArrow=classic;startFill=1;" edge="1" parent="1" source="v7YINCpVnn5Mbe7uuaay-9" target="v7YINCpVnn5Mbe7uuaay-10">
          <mxGeometry relative="1" as="geometry" />
        </mxCell>
        <mxCell id="v7YINCpVnn5Mbe7uuaay-13" style="edgeStyle=none;rounded=0;orthogonalLoop=1;jettySize=auto;html=1;dashed=1;startArrow=classic;startFill=1;endArrow=classic;endFill=1;" edge="1" parent="1" source="v7YINCpVnn5Mbe7uuaay-9" target="v7YINCpVnn5Mbe7uuaay-5">
          <mxGeometry relative="1" as="geometry" />
        </mxCell>
        <mxCell id="v7YINCpVnn5Mbe7uuaay-56" style="edgeStyle=none;rounded=0;orthogonalLoop=1;jettySize=auto;html=1;dashed=1;startArrow=classic;startFill=1;endArrow=classic;endFill=1;fontSize=18;" edge="1" parent="1" source="v7YINCpVnn5Mbe7uuaay-9" target="v7YINCpVnn5Mbe7uuaay-47">
          <mxGeometry relative="1" as="geometry" />
        </mxCell>
        <mxCell id="v7YINCpVnn5Mbe7uuaay-61" style="edgeStyle=orthogonalEdgeStyle;curved=1;rounded=0;orthogonalLoop=1;jettySize=auto;html=1;dashed=1;startArrow=classic;startFill=1;endArrow=classic;endFill=1;fontSize=18;" edge="1" parent="1" source="v7YINCpVnn5Mbe7uuaay-9" target="v7YINCpVnn5Mbe7uuaay-37">
          <mxGeometry relative="1" as="geometry">
            <Array as="points">
              <mxPoint x="370" y="490" />
              <mxPoint x="740" y="490" />
            </Array>
          </mxGeometry>
        </mxCell>
        <mxCell id="v7YINCpVnn5Mbe7uuaay-9" value="Server instance&lt;br&gt;port: 8888" style="rounded=0;whiteSpace=wrap;html=1;fillColor=#f8cecc;strokeColor=#b85450;gradientColor=#ea6b66;" vertex="1" parent="1">
          <mxGeometry x="280" y="380" width="120" height="60" as="geometry" />
        </mxCell>
        <mxCell id="v7YINCpVnn5Mbe7uuaay-12" style="edgeStyle=none;rounded=0;orthogonalLoop=1;jettySize=auto;html=1;dashed=1;startArrow=classic;startFill=1;endArrow=classic;endFill=1;" edge="1" parent="1" source="v7YINCpVnn5Mbe7uuaay-10" target="v7YINCpVnn5Mbe7uuaay-5">
          <mxGeometry relative="1" as="geometry" />
        </mxCell>
        <mxCell id="v7YINCpVnn5Mbe7uuaay-53" style="rounded=0;orthogonalLoop=1;jettySize=auto;html=1;dashed=1;startArrow=classic;startFill=1;endArrow=classic;endFill=1;fontSize=18;" edge="1" parent="1" source="v7YINCpVnn5Mbe7uuaay-10" target="v7YINCpVnn5Mbe7uuaay-47">
          <mxGeometry relative="1" as="geometry" />
        </mxCell>
        <mxCell id="v7YINCpVnn5Mbe7uuaay-54" style="edgeStyle=orthogonalEdgeStyle;rounded=0;orthogonalLoop=1;jettySize=auto;html=1;dashed=1;startArrow=classic;startFill=1;endArrow=classic;endFill=1;fontSize=18;curved=1;" edge="1" parent="1" source="v7YINCpVnn5Mbe7uuaay-10" target="v7YINCpVnn5Mbe7uuaay-37">
          <mxGeometry relative="1" as="geometry">
            <Array as="points">
              <mxPoint x="230" y="140" />
              <mxPoint x="780" y="140" />
            </Array>
          </mxGeometry>
        </mxCell>
        <mxCell id="v7YINCpVnn5Mbe7uuaay-60" style="edgeStyle=orthogonalEdgeStyle;curved=1;rounded=0;orthogonalLoop=1;jettySize=auto;html=1;dashed=1;startArrow=classic;startFill=1;endArrow=classic;endFill=1;fontSize=18;" edge="1" parent="1" source="v7YINCpVnn5Mbe7uuaay-10" target="v7YINCpVnn5Mbe7uuaay-34">
          <mxGeometry relative="1" as="geometry">
            <Array as="points">
              <mxPoint x="210" y="110" />
              <mxPoint x="790" y="110" />
              <mxPoint x="790" y="380" />
            </Array>
          </mxGeometry>
        </mxCell>
        <mxCell id="v7YINCpVnn5Mbe7uuaay-10" value="Scraper instance&lt;br&gt;port: 5656" style="rounded=0;whiteSpace=wrap;html=1;fillColor=#e1d5e7;strokeColor=#9673a6;" vertex="1" parent="1">
          <mxGeometry x="170" y="290" width="120" height="60" as="geometry" />
        </mxCell>
        <mxCell id="v7YINCpVnn5Mbe7uuaay-27" value="&lt;div style=&quot;font-size: 18px&quot;&gt;172.16.1.43&lt;/div&gt;" style="rounded=1;whiteSpace=wrap;html=1;labelPosition=center;verticalLabelPosition=top;align=center;verticalAlign=bottom;fillColor=none;fontSize=18;fontStyle=1;strokeColor=#0000FF;strokeWidth=2;perimeterSpacing=0;" vertex="1" parent="1">
          <mxGeometry x="700" y="200" width="440" height="250" as="geometry" />
        </mxCell>
        <mxCell id="v7YINCpVnn5Mbe7uuaay-28" value="mongod&lt;br&gt;port: 27217&lt;br&gt;replica set 1" style="shape=cylinder;whiteSpace=wrap;html=1;boundedLbl=1;backgroundOutline=1;fillColor=#dae8fc;strokeColor=#6c8ebf;" vertex="1" parent="1">
          <mxGeometry x="1040" y="220" width="90" height="100" as="geometry" />
        </mxCell>
        <mxCell id="v7YINCpVnn5Mbe7uuaay-29" value="mongod&lt;br&gt;port: 27117&lt;br&gt;replica set 0" style="shape=cylinder;whiteSpace=wrap;html=1;boundedLbl=1;backgroundOutline=1;fillColor=#d5e8d4;strokeColor=#82b366;" vertex="1" parent="1">
          <mxGeometry x="925" y="220" width="90" height="100" as="geometry" />
        </mxCell>
        <mxCell id="v7YINCpVnn5Mbe7uuaay-30" value="mongod&lt;br&gt;configsvr&lt;br&gt;port: 27917&lt;br&gt;config set" style="shape=cylinder;whiteSpace=wrap;html=1;boundedLbl=1;backgroundOutline=1;fillColor=#f8cecc;strokeColor=#b85450;" vertex="1" parent="1">
          <mxGeometry x="810" y="220" width="90" height="100" as="geometry" />
        </mxCell>
        <mxCell id="v7YINCpVnn5Mbe7uuaay-31" style="rounded=0;orthogonalLoop=1;jettySize=auto;html=1;endArrow=none;endFill=0;dashed=1;" edge="1" parent="1" source="v7YINCpVnn5Mbe7uuaay-34" target="v7YINCpVnn5Mbe7uuaay-30">
          <mxGeometry relative="1" as="geometry" />
        </mxCell>
        <mxCell id="v7YINCpVnn5Mbe7uuaay-32" style="edgeStyle=none;rounded=0;orthogonalLoop=1;jettySize=auto;html=1;dashed=1;endArrow=none;endFill=0;" edge="1" parent="1" source="v7YINCpVnn5Mbe7uuaay-34" target="v7YINCpVnn5Mbe7uuaay-29">
          <mxGeometry relative="1" as="geometry" />
        </mxCell>
        <mxCell id="v7YINCpVnn5Mbe7uuaay-33" style="edgeStyle=none;rounded=0;orthogonalLoop=1;jettySize=auto;html=1;dashed=1;endArrow=none;endFill=0;" edge="1" parent="1" source="v7YINCpVnn5Mbe7uuaay-34" target="v7YINCpVnn5Mbe7uuaay-28">
          <mxGeometry relative="1" as="geometry" />
        </mxCell>
        <mxCell id="v7YINCpVnn5Mbe7uuaay-34" value="mongos&lt;br&gt;port: 27017" style="ellipse;whiteSpace=wrap;html=1;fillColor=#fff2cc;strokeColor=#d6b656;" vertex="1" parent="1">
          <mxGeometry x="910" y="357" width="120" height="80" as="geometry" />
        </mxCell>
        <mxCell id="v7YINCpVnn5Mbe7uuaay-36" style="edgeStyle=none;rounded=0;orthogonalLoop=1;jettySize=auto;html=1;dashed=1;startArrow=classic;startFill=1;endArrow=classic;endFill=1;" edge="1" parent="1" source="v7YINCpVnn5Mbe7uuaay-37" target="v7YINCpVnn5Mbe7uuaay-34">
          <mxGeometry relative="1" as="geometry" />
        </mxCell>
        <mxCell id="v7YINCpVnn5Mbe7uuaay-55" style="rounded=0;orthogonalLoop=1;jettySize=auto;html=1;dashed=1;startArrow=classic;startFill=1;endArrow=classic;endFill=1;fontSize=18;" edge="1" parent="1" source="v7YINCpVnn5Mbe7uuaay-37" target="v7YINCpVnn5Mbe7uuaay-5">
          <mxGeometry relative="1" as="geometry" />
        </mxCell>
        <mxCell id="v7YINCpVnn5Mbe7uuaay-62" style="edgeStyle=orthogonalEdgeStyle;curved=1;rounded=0;orthogonalLoop=1;jettySize=auto;html=1;dashed=1;startArrow=classic;startFill=1;endArrow=classic;endFill=1;fontSize=18;" edge="1" parent="1" source="v7YINCpVnn5Mbe7uuaay-37" target="v7YINCpVnn5Mbe7uuaay-47">
          <mxGeometry relative="1" as="geometry">
            <Array as="points">
              <mxPoint x="760" y="530" />
              <mxPoint x="-70" y="530" />
            </Array>
          </mxGeometry>
        </mxCell>
        <mxCell id="v7YINCpVnn5Mbe7uuaay-37" value="Server instance&lt;br&gt;port: 8888" style="rounded=0;whiteSpace=wrap;html=1;fillColor=#f8cecc;strokeColor=#b85450;gradientColor=#ea6b66;" vertex="1" parent="1">
          <mxGeometry x="720" y="370" width="120" height="60" as="geometry" />
        </mxCell>
        <mxCell id="v7YINCpVnn5Mbe7uuaay-40" value="&lt;div style=&quot;font-size: 18px&quot;&gt;172.16.1.39&lt;/div&gt;" style="rounded=1;whiteSpace=wrap;html=1;labelPosition=center;verticalLabelPosition=top;align=center;verticalAlign=bottom;fillColor=none;fontSize=18;fontStyle=1;strokeColor=#FF0000;strokeWidth=2;" vertex="1" parent="1">
          <mxGeometry x="-340" y="200" width="440" height="250" as="geometry" />
        </mxCell>
        <mxCell id="v7YINCpVnn5Mbe7uuaay-41" value="mongod&lt;br&gt;port: 27217&lt;br&gt;replica set 1" style="shape=cylinder;whiteSpace=wrap;html=1;boundedLbl=1;backgroundOutline=1;fillColor=#dae8fc;strokeColor=#6c8ebf;" vertex="1" parent="1">
          <mxGeometry y="220" width="90" height="100" as="geometry" />
        </mxCell>
        <mxCell id="v7YINCpVnn5Mbe7uuaay-42" value="mongod&lt;br&gt;port: 27117&lt;br&gt;replica set 0" style="shape=cylinder;whiteSpace=wrap;html=1;boundedLbl=1;backgroundOutline=1;fillColor=#d5e8d4;strokeColor=#82b366;" vertex="1" parent="1">
          <mxGeometry x="-115" y="220" width="90" height="100" as="geometry" />
        </mxCell>
        <mxCell id="v7YINCpVnn5Mbe7uuaay-43" value="mongod&lt;br&gt;configsvr&lt;br&gt;port: 27917&lt;br&gt;config set" style="shape=cylinder;whiteSpace=wrap;html=1;boundedLbl=1;backgroundOutline=1;fillColor=#f8cecc;strokeColor=#b85450;" vertex="1" parent="1">
          <mxGeometry x="-230" y="220" width="90" height="100" as="geometry" />
        </mxCell>
        <mxCell id="v7YINCpVnn5Mbe7uuaay-44" style="rounded=0;orthogonalLoop=1;jettySize=auto;html=1;endArrow=none;endFill=0;dashed=1;" edge="1" parent="1" source="v7YINCpVnn5Mbe7uuaay-47" target="v7YINCpVnn5Mbe7uuaay-43">
          <mxGeometry relative="1" as="geometry" />
        </mxCell>
        <mxCell id="v7YINCpVnn5Mbe7uuaay-45" style="edgeStyle=none;rounded=0;orthogonalLoop=1;jettySize=auto;html=1;dashed=1;endArrow=none;endFill=0;" edge="1" parent="1" source="v7YINCpVnn5Mbe7uuaay-47" target="v7YINCpVnn5Mbe7uuaay-42">
          <mxGeometry relative="1" as="geometry" />
        </mxCell>
        <mxCell id="v7YINCpVnn5Mbe7uuaay-46" style="edgeStyle=none;rounded=0;orthogonalLoop=1;jettySize=auto;html=1;dashed=1;endArrow=none;endFill=0;" edge="1" parent="1" source="v7YINCpVnn5Mbe7uuaay-47" target="v7YINCpVnn5Mbe7uuaay-41">
          <mxGeometry relative="1" as="geometry" />
        </mxCell>
        <mxCell id="v7YINCpVnn5Mbe7uuaay-47" value="mongos&lt;br&gt;port: 27017" style="ellipse;whiteSpace=wrap;html=1;fillColor=#fff2cc;strokeColor=#d6b656;" vertex="1" parent="1">
          <mxGeometry x="-130" y="357" width="120" height="80" as="geometry" />
        </mxCell>
        <mxCell id="v7YINCpVnn5Mbe7uuaay-48" style="edgeStyle=none;rounded=0;orthogonalLoop=1;jettySize=auto;html=1;dashed=1;startArrow=classic;startFill=1;endArrow=classic;endFill=1;" edge="1" parent="1" source="v7YINCpVnn5Mbe7uuaay-49" target="v7YINCpVnn5Mbe7uuaay-47">
          <mxGeometry relative="1" as="geometry" />
        </mxCell>
        <mxCell id="v7YINCpVnn5Mbe7uuaay-50" style="edgeStyle=orthogonalEdgeStyle;rounded=0;orthogonalLoop=1;jettySize=auto;html=1;dashed=1;startArrow=classic;startFill=1;endArrow=classic;endFill=1;fontSize=18;curved=1;" edge="1" parent="1" source="v7YINCpVnn5Mbe7uuaay-49" target="v7YINCpVnn5Mbe7uuaay-10">
          <mxGeometry relative="1" as="geometry">
            <Array as="points">
              <mxPoint x="-300" y="150" />
              <mxPoint x="190" y="150" />
            </Array>
          </mxGeometry>
        </mxCell>
        <mxCell id="v7YINCpVnn5Mbe7uuaay-57" style="edgeStyle=orthogonalEdgeStyle;rounded=0;orthogonalLoop=1;jettySize=auto;html=1;dashed=1;startArrow=classic;startFill=1;endArrow=classic;endFill=1;fontSize=18;curved=1;" edge="1" parent="1" source="v7YINCpVnn5Mbe7uuaay-49" target="v7YINCpVnn5Mbe7uuaay-5">
          <mxGeometry relative="1" as="geometry">
            <Array as="points">
              <mxPoint x="-220" y="510" />
              <mxPoint x="500" y="510" />
            </Array>
          </mxGeometry>
        </mxCell>
        <mxCell id="v7YINCpVnn5Mbe7uuaay-58" style="edgeStyle=orthogonalEdgeStyle;curved=1;rounded=0;orthogonalLoop=1;jettySize=auto;html=1;dashed=1;startArrow=classic;startFill=1;endArrow=classic;endFill=1;fontSize=18;" edge="1" parent="1" source="v7YINCpVnn5Mbe7uuaay-49" target="v7YINCpVnn5Mbe7uuaay-34">
          <mxGeometry relative="1" as="geometry">
            <Array as="points">
              <mxPoint x="-240" y="550" />
              <mxPoint x="970" y="550" />
            </Array>
          </mxGeometry>
        </mxCell>
        <mxCell id="v7YINCpVnn5Mbe7uuaay-49" value="Server instance&lt;br&gt;port: 8888" style="rounded=0;whiteSpace=wrap;html=1;fillColor=#f8cecc;strokeColor=#b85450;gradientColor=#ea6b66;" vertex="1" parent="1">
          <mxGeometry x="-320" y="370" width="120" height="60" as="geometry" />
        </mxCell>
        <mxCell id="v7YINCpVnn5Mbe7uuaay-64" style="edgeStyle=orthogonalEdgeStyle;curved=1;rounded=0;orthogonalLoop=1;jettySize=auto;html=1;startArrow=classic;startFill=1;endArrow=classic;endFill=1;fontSize=18;strokeWidth=2;" edge="1" parent="1" source="v7YINCpVnn5Mbe7uuaay-63" target="v7YINCpVnn5Mbe7uuaay-49">
          <mxGeometry relative="1" as="geometry" />
        </mxCell>
        <mxCell id="v7YINCpVnn5Mbe7uuaay-65" style="rounded=0;orthogonalLoop=1;jettySize=auto;html=1;startArrow=classic;startFill=1;endArrow=classic;endFill=1;fontSize=18;strokeWidth=2;" edge="1" parent="1" source="v7YINCpVnn5Mbe7uuaay-63" target="v7YINCpVnn5Mbe7uuaay-9">
          <mxGeometry relative="1" as="geometry" />
        </mxCell>
        <mxCell id="v7YINCpVnn5Mbe7uuaay-66" style="edgeStyle=orthogonalEdgeStyle;curved=1;rounded=0;orthogonalLoop=1;jettySize=auto;html=1;startArrow=classic;startFill=1;endArrow=classic;endFill=1;fontSize=18;strokeWidth=2;" edge="1" parent="1" source="v7YINCpVnn5Mbe7uuaay-63" target="v7YINCpVnn5Mbe7uuaay-37">
          <mxGeometry relative="1" as="geometry" />
        </mxCell>
        <mxCell id="v7YINCpVnn5Mbe7uuaay-63" value="Client" style="rounded=1;whiteSpace=wrap;html=1;fontSize=18;fontStyle=1;fillColor=#dae8fc;strokeColor=#6c8ebf;gradientColor=#7ea6e0;" vertex="1" parent="1">
          <mxGeometry x="340" y="580" width="120" height="60" as="geometry" />
        </mxCell>
      </root>
    </mxGraphModel>
  </diagram>
</mxfile>
